<svg xmlns:inkscape="http://www.inkscape.org/namespaces/inkscape" xmlns:sodipodi="http://sodipodi.sourceforge.net/DTD/sodipodi-0.dtd" xmlns="http://www.w3.org/2000/svg" xmlns:svg="http://www.w3.org/2000/svg" width="94" height="96" viewBox="0 0 93.94529 96.221817" version="1.1" id="svg209" inkscape:version="1.2.2 (b0a8486541, 2022-12-01)" sodipodi:docname="logo_observatoire.svg">
  <defs id="defs206">
    <clipPath id="clipPath9-5">
      <path d="M 0,1000 H 1000 V 0 H 0 Z" transform="translate(-275.08551,-613.46412)" id="path9-8"/>
    </clipPath>
    <clipPath id="clipPath7-2">
      <path d="M 0,1000 H 1000 V 0 H 0 Z" transform="translate(-330.93181,-418.65271)" id="path7-52"/>
    </clipPath>
  </defs>
  <g inkscape:label="Calque 1" inkscape:groupmode="layer" id="layer1" transform="translate(-46.183973,-80.002786)">
    <path id="path6-8" d="M 0,0 H 393.65 V -39.309 H 375.475 18.178 0 Z m 249.947,-228.95 v 80.78 c 0,16.029 -5.874,30.654 -15.333,41.283 -9.644,10.847 -23.023,17.583 -37.788,17.583 -14.767,0 -28.144,-6.736 -37.791,-17.579 -9.459,-10.633 -15.332,-25.258 -15.332,-41.287 v -80.78 H 25 v 176 h 343.654 v -176 z m -25.511,113.007 c -7.131,8.017 -16.911,12.997 -27.61,12.997 -10.699,0 -20.487,-4.98 -27.613,-12.993 -7.32,-8.229 -11.869,-19.64 -11.869,-32.231 v -80.78 h 78.96 v 80.78 c 0,12.587 -4.548,23.998 -11.868,32.227 M 393.65,13.642 H 0 v 28.835 c 0,2.599 1.446,5.059 3.762,6.911 2.741,2.197 6.644,3.561 11.024,3.561 h 3.392 357.297 3.387 c 4.382,0 8.283,-1.364 11.025,-3.561 2.317,-1.852 3.763,-4.312 3.763,-6.911 z m -25.008,52.95 c -0.298,30.572 -8.682,59.307 -23.113,84.144 l -0.015,0.028 -0.271,0.464 -0.545,0.923 -0.209,0.352 -0.065,0.113 -0.279,0.46 -0.558,0.917 -0.162,0.262 -0.681,1.106 -0.285,0.457 -0.113,0.181 -0.169,0.271 -0.291,0.452 -0.575,0.905 -0.066,0.097 -1.106,1.694 -0.017,0.019 -0.281,0.426 -0.298,0.444 -1.721,2.513 -0.088,0.133 c -5.832,8.34 -12.387,16.143 -19.556,23.313 -1.949,1.948 -3.932,3.847 -5.975,5.7 l -0.162,0.15 c -0.923,0.84 -1.859,1.667 -2.803,2.487 l -0.124,0.105 -1.504,1.29 -0.065,0.055 c -29.955,25.364 -68.638,40.691 -110.719,40.691 -47.246,0 -90.208,-19.334 -121.352,-50.478 C 44.701,155.493 25.464,113.181 25.011,66.592 Z m 89.279,161.173 -53.951,67.498 14.102,11.272 53.952,-67.497 z m -64.554,59.025 -43.94,-35.119 4.941,-6.188 44.064,-55.13 0.108,-0.139 4.835,-6.045 43.948,35.124 z m -45.362,-55.083 35.587,-44.528 -29.776,-23.798 c -7.44,11.799 -16.175,22.711 -25.994,32.528 -3.662,3.663 -7.475,7.175 -11.431,10.526 z" style="fill:#00000f;fill-opacity:1;fill-rule:evenodd;stroke:none" transform="matrix(0.15504788,0,0,-0.15504788,66.942943,140.72639)" clip-path="url(#clipPath7-2)"/>
    <path id="path8-8" d="m 0,0 c -0.419,2.923 -2.715,5.349 -5.781,5.781 -3.72,0.527 -7.173,-2.061 -7.7,-5.781 -0.866,-6.079 -1.446,-10.977 -1.926,-15.077 -1.054,-9.029 -1.592,-13.588 -2.877,-14.926 l -0.026,-0.028 c -1.342,-1.288 -5.897,-1.825 -14.927,-2.88 -4.099,-0.476 -9.01,-1.055 -15.08,-1.922 -2.924,-0.417 -5.349,-2.714 -5.782,-5.781 -0.526,-3.72 2.061,-7.173 5.782,-7.699 6.082,-0.867 10.977,-1.442 15.08,-1.922 9.072,-1.059 13.616,-1.597 14.927,-2.908 1.311,-1.31 1.849,-5.85 2.907,-14.922 0.476,-4.099 1.056,-9.011 1.922,-15.081 0.418,-2.923 2.715,-5.349 5.782,-5.781 3.72,-0.527 7.172,2.061 7.699,5.781 0.866,6.083 1.442,10.977 1.921,15.081 1.06,9.072 1.597,13.616 2.908,14.925 1.307,1.308 5.851,1.846 14.923,2.905 4.099,0.476 9.01,1.055 15.081,1.922 2.923,0.417 5.347,2.714 5.781,5.781 0.525,3.72 -2.061,7.173 -5.781,7.699 -6.083,0.867 -10.982,1.446 -15.081,1.925 -8.724,1.022 -13.272,1.555 -14.78,2.75 l -0.147,0.155 C 3.522,-28.701 2.981,-24.148 1.921,-15.081 1.446,-10.982 0.866,-6.071 0,0 m 179.263,166.472 c -0.418,2.924 -2.715,5.348 -5.782,5.78 -3.72,0.527 -7.173,-2.06 -7.698,-5.78 -0.866,-6.079 -1.447,-10.979 -1.926,-15.078 -1.056,-9.028 -1.593,-13.589 -2.877,-14.925 l -0.027,-0.028 c -1.343,-1.287 -5.898,-1.825 -14.927,-2.881 -4.098,-0.476 -9.009,-1.056 -15.081,-1.922 -2.923,-0.417 -5.347,-2.715 -5.781,-5.781 -0.525,-3.72 2.061,-7.173 5.781,-7.698 6.083,-0.867 10.979,-1.444 15.081,-1.922 9.072,-1.06 13.616,-1.598 14.927,-2.909 1.311,-1.311 1.848,-5.851 2.908,-14.922 0.475,-4.098 1.056,-9.009 1.922,-15.081 0.418,-2.924 2.714,-5.348 5.78,-5.782 3.72,-0.525 7.174,2.062 7.7,5.782 0.866,6.083 1.441,10.979 1.922,15.081 1.06,9.071 1.597,13.615 2.908,14.926 1.307,1.307 5.85,1.845 14.921,2.905 4.1,0.474 9.011,1.055 15.083,1.922 2.923,0.417 5.347,2.714 5.78,5.78 0.526,3.72 -2.06,7.174 -5.78,7.699 -6.083,0.866 -10.983,1.446 -15.083,1.926 -8.722,1.021 -13.27,1.554 -14.779,2.749 l -0.146,0.156 c -1.304,1.302 -1.844,5.853 -2.904,14.922 -0.476,4.098 -1.056,9.009 -1.922,15.081 m -72.502,19.741 c 6.783,0 12.278,-5.495 12.278,-12.278 0,-6.782 -5.495,-12.277 -12.278,-12.277 -6.783,0 -12.277,5.495 -12.277,12.277 0,6.783 5.494,12.278 12.277,12.278 M -51.821,44.49 c 6.782,0 12.278,-5.495 12.278,-12.278 0,-6.783 -5.496,-12.277 -12.278,-12.277 -6.782,0 -12.277,5.494 -12.277,12.277 0,6.783 5.495,12.278 12.277,12.278 m 27.947,146.495 c -0.419,2.923 -2.715,5.347 -5.782,5.78 -3.72,0.526 -7.174,-2.061 -7.699,-5.78 -0.866,-6.08 -1.446,-10.979 -1.926,-15.078 -1.056,-9.03 -1.594,-13.589 -2.877,-14.927 l -0.028,-0.026 c -1.34,-1.288 -5.895,-1.825 -14.925,-2.881 -4.099,-0.476 -9.01,-1.056 -15.081,-1.922 -2.923,-0.418 -5.349,-2.715 -5.781,-5.782 -0.527,-3.72 2.061,-7.172 5.781,-7.699 6.083,-0.866 10.978,-1.442 15.081,-1.921 9.072,-1.06 13.616,-1.597 14.925,-2.908 1.311,-1.311 1.849,-5.851 2.909,-14.923 0.476,-4.099 1.056,-9.01 1.922,-15.081 0.417,-2.923 2.715,-5.347 5.781,-5.781 3.72,-0.525 7.173,2.061 7.7,5.781 0.865,6.083 1.442,10.979 1.92,15.081 1.06,9.072 1.598,13.616 2.909,14.927 1.307,1.307 5.851,1.844 14.923,2.904 4.099,0.475 9.01,1.055 15.08,1.921 2.924,0.419 5.348,2.715 5.782,5.781 0.525,3.721 -2.062,7.175 -5.782,7.7 -6.082,0.866 -10.981,1.446 -15.08,1.926 -8.724,1.02 -13.273,1.554 -14.78,2.749 l -0.147,0.154 c -1.303,1.304 -1.845,5.855 -2.905,14.923 -0.474,4.099 -1.055,9.01 -1.92,15.082 m 88.552,-53.608 c 2.702,-8.812 4.57,-15.313 6.14,-20.816 4.285,-14.984 6.435,-22.489 10.332,-26.384 l 0.013,-0.011 0.015,0.011 c 3.937,-3.937 11.423,-6.079 26.388,-10.36 5.51,-1.574 12.003,-3.429 20.85,-6.148 3.589,-1.102 5.604,-4.911 4.502,-8.5 -0.689,-2.245 -2.441,-3.878 -4.536,-4.513 -8.798,-2.698 -15.329,-4.574 -20.828,-6.144 C 92.601,50.235 85.11,48.09 81.178,44.157 L 80.903,43.898 C 77.156,39.903 75.006,32.406 70.818,17.766 69.245,12.258 67.376,5.743 64.666,-3.082 63.565,-6.671 59.755,-8.684 56.167,-7.583 53.92,-6.89 52.289,-5.139 51.654,-3.043 48.94,5.813 47.083,12.282 45.51,17.781 41.232,32.733 39.09,40.224 35.157,44.157 l -0.259,0.274 c -3.994,3.747 -11.492,5.897 -26.132,10.085 -5.507,1.574 -12.022,3.442 -20.847,6.153 -3.588,1.102 -5.603,4.911 -4.5,8.5 0.691,2.245 2.443,3.878 4.539,4.512 8.851,2.714 15.324,4.57 20.823,6.145 14.954,4.276 22.443,6.418 26.376,10.351 l 0.275,0.259 c 3.747,3.994 5.897,11.493 10.085,26.133 1.578,5.514 3.433,12.007 6.148,20.846 1.102,3.589 4.911,5.604 8.5,4.502 2.247,-0.693 3.879,-2.445 4.513,-4.54" style="fill:#00000f;fill-opacity:1;fill-rule:evenodd;stroke:none" transform="matrix(0.15504788,0,0,-0.15504788,58.284083,110.52131)" clip-path="url(#clipPath9-5)"/>
  </g>
</svg>